#!OML:ASF E:/inclinewalkrobotboard/Project1/Captureday1/Session1/subject1.ASF
:FULLY-SPECIFIED
:DEGREES
88
root 0 0 0 85.62936692389408 -33.190699039425255 -56.11315595806523
lowerback -11.44691282495657 9.709700008630648 14.18709812957535
upperback -20.787399701856383 12.308636754267043 3.125064531557969
thorax -15.220087924933225 4.232869975224848 -3.7840968378966693
lowerneck -8.95155236095106 11.969126016499212 6.2432919217455565
upperneck 10.15869788172375 14.264390573578405 9.15725108645714
head 4.527420317081226 7.721022242808133 2.790400605736567
rclavicle 9.374770129325795E-15 7.844255422968203E-15
rhumerus 33.89866710330967 -50.091251097466646 -14.707073298914146
rradius 19.9186639955839
rwrist 40.36258730996866
rhand 0.5719249853419406 2.3277665230295455
rfingers 7.125020000000066
rthumb 26.138870893336122 -25.86055252201379
lclavicle 8.479657053327423E-16 2.029234868882248E-15
lhumerus -7.135125561964594 12.979979764238344 -4.234871664239577
lradius 20.910705254451052
lwrist -38.908602326667456
lhand 0.5215451494084327 34.362034660137454
lfingers 7.125020000000039
lthumb 26.0601977899735 62.48932883293723
rfemur 206.39705309648747 -182.7194836654835 -174.30803185428306
rtibia 56.75608726768162
rfoot 58.34942135717883 -31.016524961007033
rtoes 15.766461568102608
lfemur -54.30880313091414 25.55401790109847 21.300011145175972
ltibia 22.987110965169784
lfoot -66.11071840643743 8.911878211272276
ltoes 60.36775008571785
89
root 0 0 0 85.62516312873062 -33.18814409983118 -56.10986835925015
lowerback -11.445177487347902 9.709976624251766 14.190657302679723
upperback -20.79001317117117 12.309005667667131 3.126515277059559
thorax -15.223945752338768 4.232521924727008 -3.7837761922425495
lowerneck -8.948419308650228 11.97043243104861 6.242595621175716
upperneck 10.157384856423267 14.266384674505737 9.16059410468198
head 4.526146855077062 7.722009560365294 2.7914832313695577
rclavicle 9.404340982174731E-15 7.861163669672133E-15
rhumerus 33.85128564607757 -50.10385554456488 -14.644105874540372
rradius 19.909921231869287
rwrist 40.371433288385646
rhand 0.5708015684499763 2.3252300562677526
rfingers 7.125020000000066
rthumb 26.137782385737836 -25.863767374956105
lclavicle 8.599657504147392E-16 2.0471331778681618E-15
lhumerus -7.169781757040864 12.98481568198609 -4.222578498907517
lradius 20.905632966899045
lwrist -38.92214539939343
lhand 0.5155128191096086 34.3558676214637
lfingers 7.125020000000039
lthumb 26.05452091521879 62.484450294916186
rfemur 206.38802754113206 -182.710540172572 -174.30167596139944
rtibia 56.749215456938536
rfoot 58.339406519781434 -31.025231656718155
rtoes 15.771801423906128
lfemur -54.30811347643723 25.55769854604176 21.300887791168165
ltibia 22.990426996125677
lfoot -66.10767565376364 8.91372508716919
ltoes 60.37034663012523
90
root 0 0 0 85.6212512704918 -33.1862955795616 -56.10694021062162
lowerback -11.443499165472563 9.710218490892037 14.194003384890747
upperback -20.7922404406941 12.309338461543987 3.1278326172679085
thorax -15.227328190205117 4.23220475672228 -3.7835572199192296
lowerneck -8.9456338391917 11.971460914598701 6.2418722300135165
upperneck 10.156660994607003 14.267966367719936 9.163572348314037
head 4.525179074268383 7.722791769159682 2.7924521427317037
rclavicle 9.417293906796017E-15 7.875757886772996E-15
rhumerus 33.810929053313 -50.1111108308354 -14.59144374041044
rradius 19.90843345979782
rwrist 40.37796817597055
rhand 0.5695127488797036 2.3244487193083927
rfingers 7.125020000000066
rthumb 26.136574353135167 -25.865176817479608
lclavicle 8.65302852880766E-16 2.0639377561797634E-15
lhumerus -7.204219999840698 12.987722475357081 -4.206637523502096
lradius 20.90391022004868
lwrist -38.93148308085988
lhand 0.5094940726374608 34.35171370041912
lfingers 7.125020000000039
lthumb 26.04883099306923 62.481470436081295
rfemur 206.38104558389307 -182.70532370913122 -174.29787358885076
rtibia 56.744366028632385
rfoot 58.328592929537436 -31.030998319570642
rtoes 15.7740783147045
lfemur -54.308227283693554 25.560133146653605 21.301446826227654
ltibia 22.992386365883398
lfoot -66.10358010320031 8.91324291862513
ltoes 60.37169610093483
91
root 0 0 0 85.6194551598133 -33.185654520396426 -56.105597549806426
lowerback -11.44271986821144 9.71031390718751 14.195571077067044
upperback -20.793232843004553 12.309469872106863 3.1284462212285256
thorax -15.228845792675838 4.2320462963424195 -3.783466777754022
lowerneck -8.944363810314796 11.971911710847895 6.24152510002116
upperneck 10.156396938677892 14.26865856839951 9.164940612433234
head 4.524760394704954 7.723134384906879 2.792900310541218
rclavicle 9.428945944045142E-15 7.880957676648322E-15
rhumerus 33.78234926161844 -50.1139849751834 -14.560577919313523
rradius 19.909087967290446
rwrist 40.38045510696486
rhand 0.5677885587616651 2.3251610700913714
rfingers 7.125020000000066
rthumb 26.134941598170247 -25.864991048782105
lclavicle 8.719098781351447E-16 2.0712138994574144E-15
lhumerus -7.227513335017689 12.988604893086066 -4.196987171632962
lradius 20.903316407050024
lwrist -38.93593962613089
lhand 0.5056966520198405 34.34929250209133
lfingers 7.125020000000039
lthumb 26.04522515654709 62.4797133142748
rfemur 206.37592746835838 -182.7017018466572 -174.29537478998887
rtibia 56.74169075199512
rfoot 58.32235457612467 -31.03545216348401
rtoes 15.774113352243123
lfemur -54.30749480080773 25.561322583986666 21.301896555330664
ltibia 22.992871190973354
lfoot -66.10097126813692 8.912398588284123
ltoes 60.37249251370537
